<svg width="1253" height="314" viewBox="0 0 1253 314" fill="none" xmlns="http://www.w3.org/2000/svg">
<rect x="267.572" y="151.683" width="147.746" height="12.797" fill="#5F0061"/>
<rect x="43.0441" y="66.7573" width="147.746" height="12.797" fill="#5F0061"/>
<rect x="43.0441" y="229.629" width="147.746" height="12.797" fill="#D9D9D9"/>
<rect x="140.766" y="229.629" width="147.746" height="12.797" fill="#D9D9D9"/>
<path d="M140.766 66.7573H288.512V79.5544H140.766V66.7573Z" fill="#5F0061"/>
<path d="M278.042 147.03V66.7575H290.839V147.03H278.042Z" fill="#5F0061"/>
<path d="M521.183 275V194.728H533.98V275H521.183Z" fill="#D9D9D9"/>
<path d="M1044.69 259.876V179.604H1057.49V259.876H1044.69Z" fill="#D9D9D9"/>
<path d="M636.355 143.54V63.2673H649.152V143.54H636.355Z" fill="#D9D9D9"/>
<path d="M1041.2 150.52V70.2475H1054V150.52H1041.2Z" fill="#D9D9D9"/>
<path d="M278.042 242.426V162.154H290.839V242.426H278.042Z" fill="#D9D9D9"/>
<path d="M37.2274 242.426L37.2274 162.154H50.0243L50.0243 242.426H37.2274Z" fill="#D9D9D9"/>
<path d="M37.2274 147.03L37.2274 66.7575H50.0243L50.0243 147.03H37.2274Z" fill="#5F0061"/>
<rect x="410.664" y="151.683" width="147.746" height="12.797" fill="#5F0061"/>
<rect x="529.327" y="151.683" width="147.746" height="12.797" fill="#5F0061"/>
<rect x="647.989" y="151.683" width="147.746" height="12.797" fill="#D9D9D9"/>
<rect x="766.651" y="151.683" width="147.746" height="12.797" fill="#D9D9D9"/>
<rect x="894.62" y="151.683" width="147.746" height="12.797" fill="#D9D9D9"/>
<rect x="1042.37" y="152.846" width="147.746" height="12.797" fill="#D9D9D9"/>
<rect x="527" y="268.02" width="265.245" height="12.797" fill="#D9D9D9"/>
<rect x="794.572" y="268.02" width="265.245" height="12.797" fill="#D9D9D9"/>
<rect x="642.172" y="28.3665" width="411.828" height="12.797" fill="#D9D9D9"/>
<ellipse cx="42.5677" cy="157.5" rx="42.5677" ry="39.1667" fill="#5F0061"/>
<path d="M35.3445 169.523V159.143H35.0888C34.8672 159.501 34.5519 159.952 34.1428 160.498C33.7337 161.035 33.1499 161.516 32.3914 161.942C31.6329 162.36 30.6229 162.569 29.3616 162.569C27.7252 162.569 26.2806 162.155 25.0278 161.329C23.7749 160.493 22.7948 159.317 22.0874 157.8C21.38 156.275 21.0263 154.472 21.0263 152.393C21.0263 150.33 21.38 148.54 22.0874 147.023C22.7948 145.506 23.7792 144.334 25.0405 143.508C26.3019 142.681 27.7593 142.268 29.4127 142.268C30.6911 142.268 31.7011 142.481 32.4425 142.907C33.1925 143.324 33.7636 143.802 34.1556 144.339C34.5562 144.867 34.8672 145.302 35.0888 145.643H35.4468V142.523H38.3616V169.523H35.3445ZM29.7707 159.859C30.9809 159.859 32.0036 159.543 32.8388 158.913C33.6741 158.273 34.309 157.391 34.7437 156.266C35.1783 155.133 35.3957 153.824 35.3957 152.341C35.3957 150.876 35.1826 149.593 34.7564 148.493C34.3303 147.386 33.6996 146.525 32.8644 145.911C32.0292 145.289 30.9979 144.978 29.7707 144.978C28.4922 144.978 27.4269 145.306 26.5746 145.962C25.7309 146.61 25.0959 147.492 24.6698 148.609C24.2522 149.716 24.0434 150.961 24.0434 152.341C24.0434 153.739 24.2564 155.009 24.6826 156.151C25.1172 157.285 25.7564 158.188 26.6002 158.861C27.4525 159.526 28.5093 159.859 29.7707 159.859ZM49.0491 166.966C47.0036 166.966 45.4013 166.242 44.2422 164.793C43.0832 163.353 42.5036 161.367 42.5036 158.836C42.5036 156.305 43.0832 154.327 44.2422 152.904C45.4013 151.472 47.0036 150.756 49.0491 150.756C51.0689 150.756 52.6627 151.464 53.8303 152.878C55.0064 154.293 55.5945 156.279 55.5945 158.836C55.5945 161.393 55.0064 163.387 53.8303 164.819C52.6627 166.251 51.0689 166.966 49.0491 166.966ZM49.0491 164.665C50.1741 164.665 51.0775 164.171 51.7593 163.182C52.4411 162.202 52.782 160.753 52.782 158.836C52.782 156.918 52.4411 155.469 51.7593 154.489C51.0775 153.501 50.1741 153.006 49.0491 153.006C47.9241 153.006 47.0207 153.501 46.3388 154.489C45.657 155.469 45.3161 156.918 45.3161 158.836C45.3161 160.728 45.6485 162.172 46.3133 163.17C46.9866 164.167 47.8985 164.665 49.0491 164.665Z" fill="white"/>
<ellipse cx="163.676" cy="79.1667" rx="42.5677" ry="39.1667" fill="#5F0061"/>
<path d="M158.851 96.7064V86.3257H158.595C158.373 86.6837 158.058 87.1354 157.649 87.6808C157.24 88.2178 156.656 88.6993 155.898 89.1254C155.139 89.5431 154.129 89.7519 152.868 89.7519C151.231 89.7519 149.787 89.3385 148.534 88.5118C147.281 87.6766 146.301 86.5004 145.594 84.9834C144.886 83.4578 144.533 81.6553 144.533 79.5757C144.533 77.5132 144.886 75.7235 145.594 74.2064C146.301 72.6894 147.285 71.5175 148.547 70.6908C149.808 69.8641 151.266 69.4507 152.919 69.4507C154.197 69.4507 155.207 69.6638 155.949 70.0899C156.699 70.5075 157.27 70.9848 157.662 71.5217C158.062 72.0502 158.373 72.4848 158.595 72.8257H158.953V69.7064H161.868V96.7064H158.851ZM153.277 87.0416C154.487 87.0416 155.51 86.7263 156.345 86.0956C157.18 85.4564 157.815 84.5743 158.25 83.4493C158.685 82.3158 158.902 81.0075 158.902 79.5246C158.902 78.0587 158.689 76.776 158.263 75.6766C157.837 74.5686 157.206 73.7078 156.371 73.0942C155.535 72.472 154.504 72.161 153.277 72.161C151.998 72.161 150.933 72.4891 150.081 73.1453C149.237 73.7931 148.602 74.6752 148.176 75.7916C147.758 76.8996 147.55 78.1439 147.55 79.5246C147.55 80.9223 147.763 82.1922 148.189 83.3343C148.623 84.4678 149.263 85.3712 150.106 86.0445C150.959 86.7093 152.016 87.0416 153.277 87.0416ZM170.229 93.8428V80.9308H170.101L166.061 83.6155V80.9053L170.229 78.1439H172.888V93.8428H170.229Z" fill="white"/>
<ellipse cx="163.676" cy="235.833" rx="42.5677" ry="39.1667" fill="#D9D9D9"/>
<path d="M156.453 253.373V242.992H156.197C155.975 243.35 155.66 243.802 155.251 244.348C154.842 244.885 154.258 245.366 153.499 245.792C152.741 246.21 151.731 246.419 150.47 246.419C148.833 246.419 147.389 246.005 146.136 245.179C144.883 244.343 143.903 243.167 143.196 241.65C142.488 240.125 142.134 238.322 142.134 236.242C142.134 234.18 142.488 232.39 143.196 230.873C143.903 229.356 144.887 228.184 146.149 227.358C147.41 226.531 148.867 226.117 150.521 226.117C151.799 226.117 152.809 226.331 153.551 226.757C154.301 227.174 154.872 227.652 155.264 228.188C155.664 228.717 155.975 229.152 156.197 229.492H156.555V226.373H159.47V253.373H156.453ZM150.879 243.708C152.089 243.708 153.112 243.393 153.947 242.762C154.782 242.123 155.417 241.241 155.852 240.116C156.286 238.983 156.504 237.674 156.504 236.191C156.504 234.725 156.291 233.443 155.865 232.343C155.438 231.235 154.808 230.375 153.972 229.761C153.137 229.139 152.106 228.828 150.879 228.828C149.6 228.828 148.535 229.156 147.683 229.812C146.839 230.46 146.204 231.342 145.778 232.458C145.36 233.566 145.151 234.811 145.151 236.191C145.151 237.589 145.365 238.859 145.791 240.001C146.225 241.135 146.865 242.038 147.708 242.711C148.561 243.376 149.617 243.708 150.879 243.708ZM164.021 250.51V248.515L170.004 243.197C170.6 242.669 171.099 242.196 171.499 241.778C171.9 241.36 172.203 240.956 172.407 240.563C172.612 240.171 172.714 239.754 172.714 239.311C172.714 238.544 172.42 237.934 171.832 237.483C171.244 237.031 170.515 236.805 169.646 236.805C168.725 236.805 167.984 237.052 167.421 237.546C166.859 238.032 166.578 238.671 166.578 239.464H163.919C163.919 238.007 164.46 236.835 165.542 235.948C166.624 235.054 168.009 234.606 169.697 234.606C170.822 234.606 171.811 234.811 172.663 235.22C173.515 235.62 174.18 236.174 174.657 236.882C175.134 237.581 175.373 238.373 175.373 239.26C175.373 239.958 175.232 240.606 174.951 241.203C174.67 241.799 174.231 242.417 173.634 243.056C173.038 243.696 172.271 244.424 171.333 245.242L168.009 248.157V248.26H175.833V250.51H164.021Z" fill="white"/>
<ellipse cx="284.784" cy="157.5" rx="42.5677" ry="39.1667" fill="#5F0061"/>
<path d="M277.561 169.523V159.143H277.305C277.083 159.501 276.768 159.952 276.359 160.498C275.95 161.035 275.366 161.516 274.608 161.942C273.849 162.36 272.839 162.569 271.578 162.569C269.941 162.569 268.497 162.155 267.244 161.329C265.991 160.493 265.011 159.317 264.304 157.8C263.596 156.275 263.242 154.472 263.242 152.393C263.242 150.33 263.596 148.54 264.304 147.023C265.011 145.506 265.995 144.334 267.257 143.508C268.518 142.681 269.975 142.268 271.629 142.268C272.907 142.268 273.917 142.481 274.659 142.907C275.409 143.324 275.98 143.802 276.372 144.339C276.772 144.867 277.083 145.302 277.305 145.643H277.663V142.523H280.578V169.523H277.561ZM271.987 159.859C273.197 159.859 274.22 159.543 275.055 158.913C275.89 158.273 276.525 157.391 276.96 156.266C277.394 155.133 277.612 153.824 277.612 152.341C277.612 150.876 277.399 149.593 276.973 148.493C276.546 147.386 275.916 146.525 275.081 145.911C274.245 145.289 273.214 144.978 271.987 144.978C270.708 144.978 269.643 145.306 268.791 145.962C267.947 146.61 267.312 147.492 266.886 148.609C266.468 149.716 266.26 150.961 266.26 152.341C266.26 153.739 266.473 155.009 266.899 156.151C267.333 157.285 267.973 158.188 268.816 158.861C269.669 159.526 270.725 159.859 271.987 159.859ZM291.061 166.864C289.885 166.864 288.832 166.668 287.903 166.276C286.983 165.884 286.25 165.343 285.704 164.653C285.167 163.962 284.89 163.165 284.873 162.262H287.686C287.711 162.952 288.044 163.506 288.683 163.924C289.322 164.35 290.115 164.563 291.061 164.563C292.058 164.563 292.876 164.333 293.515 163.873C294.163 163.413 294.487 162.824 294.487 162.109C294.487 161.393 294.142 160.805 293.451 160.344C292.769 159.884 291.853 159.654 290.703 159.654H289.424V157.609H290.703C291.649 157.609 292.437 157.395 293.068 156.969C293.707 156.543 294.027 155.972 294.027 155.256C294.027 154.591 293.758 154.042 293.221 153.607C292.684 153.172 291.981 152.955 291.112 152.955C290.242 152.955 289.492 153.168 288.862 153.594C288.24 154.02 287.916 154.591 287.89 155.307H285.231C285.248 154.404 285.517 153.611 286.037 152.93C286.565 152.248 287.268 151.715 288.146 151.332C289.032 150.948 290.021 150.756 291.112 150.756C292.22 150.756 293.196 150.944 294.039 151.319C294.883 151.694 295.544 152.209 296.021 152.866C296.498 153.522 296.737 154.268 296.737 155.103C296.737 156.023 296.421 156.778 295.791 157.366C295.16 157.954 294.385 158.324 293.464 158.478V158.58C294.717 158.759 295.676 159.189 296.341 159.871C297.014 160.553 297.35 161.367 297.35 162.313C297.35 163.182 297.082 163.958 296.545 164.64C296.008 165.33 295.267 165.871 294.321 166.263C293.375 166.664 292.288 166.864 291.061 166.864Z" fill="white"/>
<ellipse cx="405.892" cy="157.5" rx="42.5677" ry="39.1667" fill="#5F0061"/>
<path d="M398.669 169.523V159.143H398.413C398.191 159.501 397.876 159.952 397.467 160.498C397.058 161.035 396.474 161.516 395.716 161.942C394.957 162.36 393.947 162.569 392.686 162.569C391.049 162.569 389.605 162.155 388.352 161.329C387.099 160.493 386.119 159.317 385.412 157.8C384.704 156.275 384.351 154.472 384.351 152.393C384.351 150.33 384.704 148.54 385.412 147.023C386.119 145.506 387.103 144.334 388.365 143.508C389.626 142.681 391.084 142.268 392.737 142.268C394.015 142.268 395.025 142.481 395.767 142.907C396.517 143.324 397.088 143.802 397.48 144.339C397.88 144.867 398.191 145.302 398.413 145.643H398.771V142.523H401.686V169.523H398.669ZM393.095 159.859C394.305 159.859 395.328 159.543 396.163 158.913C396.998 158.273 397.633 157.391 398.068 156.266C398.503 155.133 398.72 153.824 398.72 152.341C398.72 150.876 398.507 149.593 398.081 148.493C397.655 147.386 397.024 146.525 396.189 145.911C395.353 145.289 394.322 144.978 393.095 144.978C391.816 144.978 390.751 145.306 389.899 145.962C389.055 146.61 388.42 147.492 387.994 148.609C387.576 149.716 387.368 150.961 387.368 152.341C387.368 153.739 387.581 155.009 388.007 156.151C388.441 157.285 389.081 158.188 389.924 158.861C390.777 159.526 391.834 159.859 393.095 159.859ZM405.777 163.694V161.546L413.243 150.961H415.135V154.029H413.959L408.64 161.393V161.495H418.868V163.694H405.777ZM414.061 166.66V163.029V162.109V150.961H416.72V166.66H414.061Z" fill="white"/>
<ellipse cx="527" cy="157.5" rx="42.5677" ry="39.1667" fill="#5F0061"/>
<path d="M523.374 169.523V159.143H523.118C522.897 159.501 522.581 159.952 522.172 160.498C521.763 161.035 521.18 161.516 520.421 161.942C519.662 162.36 518.653 162.569 517.391 162.569C515.755 162.569 514.31 162.155 513.057 161.329C511.805 160.493 510.824 159.317 510.117 157.8C509.41 156.275 509.056 154.472 509.056 152.393C509.056 150.33 509.41 148.54 510.117 147.023C510.824 145.506 511.809 144.334 513.07 143.508C514.331 142.681 515.789 142.268 517.442 142.268C518.721 142.268 519.731 142.481 520.472 142.907C521.222 143.324 521.793 143.802 522.185 144.339C522.586 144.867 522.897 145.302 523.118 145.643H523.476V142.523H526.391V169.523H523.374ZM517.8 159.859C519.01 159.859 520.033 159.543 520.868 158.913C521.704 158.273 522.339 157.391 522.773 156.266C523.208 155.133 523.425 153.824 523.425 152.341C523.425 150.876 523.212 149.593 522.786 148.493C522.36 147.386 521.729 146.525 520.894 145.911C520.059 145.289 519.028 144.978 517.8 144.978C516.522 144.978 515.456 145.306 514.604 145.962C513.76 146.61 513.126 147.492 512.699 148.609C512.282 149.716 512.073 150.961 512.073 152.341C512.073 153.739 512.286 155.009 512.712 156.151C513.147 157.285 513.786 158.188 514.63 158.861C515.482 159.526 516.539 159.859 517.8 159.859ZM536.67 166.864C535.562 166.864 534.569 166.668 533.691 166.276C532.822 165.884 532.131 165.343 531.62 164.653C531.117 163.962 530.857 163.165 530.84 162.262H533.55C533.576 162.952 533.87 163.532 534.432 164.001C535.003 164.478 535.749 164.716 536.67 164.716C537.667 164.716 538.485 164.418 539.124 163.822C539.772 163.225 540.096 162.466 540.096 161.546C540.096 160.6 539.759 159.837 539.086 159.258C538.412 158.67 537.59 158.376 536.618 158.376C536.056 158.376 535.523 158.482 535.02 158.695C534.518 158.908 534.113 159.194 533.806 159.552L531.198 159.091L532.118 150.961H541.937V153.211H534.42L533.857 157.762H533.959C534.292 157.353 534.756 157.02 535.353 156.765C535.958 156.509 536.618 156.381 537.334 156.381C538.357 156.381 539.278 156.599 540.096 157.033C540.914 157.468 541.562 158.069 542.039 158.836C542.516 159.603 542.755 160.489 542.755 161.495C542.755 162.535 542.495 163.459 541.975 164.269C541.464 165.079 540.748 165.714 539.827 166.174C538.915 166.634 537.863 166.864 536.67 166.864Z" fill="white"/>
<ellipse cx="648.108" cy="157.5" rx="42.5677" ry="39.1667" fill="#5F0061"/>
<path d="M642.084 169.523V159.143H641.828C641.607 159.501 641.291 159.952 640.882 160.498C640.473 161.035 639.889 161.516 639.131 161.942C638.372 162.36 637.362 162.569 636.101 162.569C634.465 162.569 633.02 162.155 631.767 161.329C630.514 160.493 629.534 159.317 628.827 157.8C628.12 156.275 627.766 154.472 627.766 152.393C627.766 150.33 628.12 148.54 628.827 147.023C629.534 145.506 630.519 144.334 631.78 143.508C633.041 142.681 634.499 142.268 636.152 142.268C637.431 142.268 638.441 142.481 639.182 142.907C639.932 143.324 640.503 143.802 640.895 144.339C641.296 144.867 641.607 145.302 641.828 145.643H642.186V142.523H645.101V169.523H642.084ZM636.51 159.859C637.72 159.859 638.743 159.543 639.578 158.913C640.414 158.273 641.048 157.391 641.483 156.266C641.918 155.133 642.135 153.824 642.135 152.341C642.135 150.876 641.922 149.593 641.496 148.493C641.07 147.386 640.439 146.525 639.604 145.911C638.769 145.289 637.737 144.978 636.51 144.978C635.232 144.978 634.166 145.306 633.314 145.962C632.47 146.61 631.835 147.492 631.409 148.609C630.992 149.716 630.783 150.961 630.783 152.341C630.783 153.739 630.996 155.009 631.422 156.151C631.857 157.285 632.496 158.188 633.34 158.861C634.192 159.526 635.249 159.859 636.51 159.859ZM655.686 166.864C654.843 166.864 654.033 166.724 653.257 166.442C652.49 166.161 651.804 165.714 651.199 165.1C650.594 164.495 650.117 163.707 649.767 162.735C649.418 161.772 649.243 160.609 649.243 159.245C649.243 157.574 649.499 156.1 650.01 154.822C650.521 153.535 651.267 152.529 652.247 151.805C653.227 151.072 654.425 150.705 655.84 150.705C657.502 150.705 658.831 151.161 659.828 152.073C660.825 152.976 661.388 154.055 661.516 155.307H658.806C658.678 154.617 658.35 154.08 657.821 153.697C657.293 153.305 656.632 153.109 655.84 153.109C654.561 153.109 653.594 153.624 652.938 154.655C652.281 155.687 651.953 157.097 651.953 158.887H652.056C652.439 158.145 653.031 157.57 653.833 157.161C654.634 156.743 655.507 156.535 656.453 156.535C657.442 156.535 658.333 156.752 659.125 157.187C659.926 157.613 660.557 158.201 661.017 158.951C661.486 159.692 661.72 160.54 661.72 161.495C661.72 162.535 661.465 163.459 660.953 164.269C660.45 165.079 659.743 165.714 658.831 166.174C657.928 166.634 656.879 166.864 655.686 166.864ZM655.686 164.716C656.317 164.716 656.888 164.576 657.399 164.295C657.911 164.022 658.316 163.647 658.614 163.17C658.912 162.701 659.061 162.177 659.061 161.597C659.061 161.018 658.912 160.498 658.614 160.038C658.316 159.569 657.911 159.202 657.399 158.938C656.888 158.665 656.317 158.529 655.686 158.529C655.021 158.529 654.425 158.67 653.896 158.951C653.368 159.224 652.959 159.607 652.669 160.101C652.379 160.587 652.26 161.154 652.311 161.802C652.362 162.569 652.695 163.246 653.308 163.834C653.922 164.422 654.715 164.716 655.686 164.716Z" fill="white"/>
<ellipse cx="771.662" cy="157.5" rx="42.5677" ry="39.1667" fill="#D9D9D9"/>
<path d="M765.638 169.523V159.143H765.382C765.161 159.501 764.845 159.952 764.436 160.498C764.027 161.035 763.443 161.516 762.685 161.942C761.926 162.36 760.916 162.569 759.655 162.569C758.019 162.569 756.574 162.155 755.321 161.329C754.068 160.493 753.088 159.317 752.381 157.8C751.673 156.275 751.32 154.472 751.32 152.393C751.32 150.33 751.673 148.54 752.381 147.023C753.088 145.506 754.073 144.334 755.334 143.508C756.595 142.681 758.053 142.268 759.706 142.268C760.985 142.268 761.994 142.481 762.736 142.907C763.486 143.324 764.057 143.802 764.449 144.339C764.85 144.867 765.161 145.302 765.382 145.643H765.74V142.523H768.655V169.523H765.638ZM760.064 159.859C761.274 159.859 762.297 159.543 763.132 158.913C763.968 158.273 764.602 157.391 765.037 156.266C765.472 155.133 765.689 153.824 765.689 152.341C765.689 150.876 765.476 149.593 765.05 148.493C764.624 147.386 763.993 146.525 763.158 145.911C762.323 145.289 761.291 144.978 760.064 144.978C758.786 144.978 757.72 145.306 756.868 145.962C756.024 146.61 755.389 147.492 754.963 148.609C754.546 149.716 754.337 150.961 754.337 152.341C754.337 153.739 754.55 155.009 754.976 156.151C755.411 157.285 756.05 158.188 756.894 158.861C757.746 159.526 758.803 159.859 760.064 159.859ZM778.882 150.705C779.726 150.705 780.531 150.846 781.298 151.127C782.074 151.408 782.764 151.856 783.369 152.469C783.975 153.074 784.452 153.859 784.801 154.822C785.151 155.785 785.325 156.952 785.325 158.324C785.325 159.56 785.185 160.702 784.904 161.751C784.622 162.79 784.2 163.689 783.638 164.448C783.084 165.215 782.402 165.807 781.593 166.225C780.783 166.651 779.845 166.864 778.78 166.864C777.706 166.864 776.756 166.664 775.929 166.263C775.111 165.871 774.45 165.326 773.948 164.627C773.453 163.937 773.155 163.148 773.053 162.262H775.763C775.916 163.003 776.266 163.562 776.811 163.937C777.357 164.32 778.013 164.512 778.78 164.512C780.033 164.512 780.983 163.992 781.631 162.952C782.287 161.921 782.615 160.498 782.615 158.682H782.513C782.155 159.398 781.575 159.969 780.774 160.395C779.973 160.822 779.087 161.035 778.115 161.035C777.127 161.035 776.232 160.822 775.431 160.395C774.638 159.961 774.007 159.368 773.539 158.618C773.078 157.86 772.848 156.995 772.848 156.023C772.848 155.001 773.1 154.089 773.602 153.288C774.114 152.486 774.821 151.856 775.725 151.395C776.637 150.935 777.689 150.705 778.882 150.705ZM778.933 152.853C778.286 152.853 777.706 152.993 777.195 153.275C776.692 153.547 776.291 153.922 775.993 154.4C775.703 154.868 775.558 155.393 775.558 155.972C775.558 156.841 775.878 157.57 776.517 158.158C777.156 158.746 777.962 159.04 778.933 159.04C779.581 159.04 780.169 158.895 780.698 158.606C781.226 158.307 781.639 157.924 781.938 157.455C782.236 156.978 782.36 156.466 782.308 155.921C782.232 155.001 781.874 154.259 781.235 153.697C780.595 153.134 779.828 152.853 778.933 152.853Z" fill="white"/>
<ellipse cx="909.267" cy="158.276" rx="42.5677" ry="39.1667" fill="#D9D9D9"/>
<path d="M894.492 163.799V153.419H894.237C894.015 153.776 893.7 154.228 893.291 154.774C892.882 155.311 892.298 155.792 891.539 156.218C890.781 156.636 889.771 156.845 888.509 156.845C886.873 156.845 885.428 156.431 884.176 155.605C882.923 154.769 881.943 153.593 881.235 152.076C880.528 150.551 880.174 148.748 880.174 146.669C880.174 144.606 880.528 142.816 881.235 141.299C881.943 139.782 882.927 138.61 884.188 137.784C885.45 136.957 886.907 136.544 888.561 136.544C889.839 136.544 890.849 136.757 891.59 137.183C892.34 137.6 892.911 138.078 893.303 138.615C893.704 139.143 894.015 139.578 894.237 139.919H894.595V136.799H897.509V163.799H894.492ZM888.919 154.134C890.129 154.134 891.151 153.819 891.987 153.188C892.822 152.549 893.457 151.667 893.892 150.542C894.326 149.409 894.544 148.1 894.544 146.617C894.544 145.151 894.33 143.869 893.904 142.769C893.478 141.661 892.848 140.801 892.012 140.187C891.177 139.565 890.146 139.254 888.919 139.254C887.64 139.254 886.575 139.582 885.723 140.238C884.879 140.886 884.244 141.768 883.818 142.884C883.4 143.992 883.191 145.237 883.191 146.617C883.191 148.015 883.404 149.285 883.83 150.427C884.265 151.561 884.904 152.464 885.748 153.137C886.6 153.802 887.657 154.134 888.919 154.134ZM905.87 160.936V148.024H905.742L901.703 150.708V147.998L905.87 145.237H908.529V160.936H905.87ZM919.482 161.242C917.437 161.242 915.834 160.518 914.675 159.069C913.516 157.629 912.937 155.643 912.937 153.112C912.937 150.58 913.516 148.603 914.675 147.18C915.834 145.748 917.437 145.032 919.482 145.032C921.502 145.032 923.096 145.74 924.263 147.154C925.439 148.569 926.028 150.555 926.028 153.112C926.028 155.669 925.439 157.663 924.263 159.095C923.096 160.526 921.502 161.242 919.482 161.242ZM919.482 158.941C920.607 158.941 921.511 158.447 922.192 157.458C922.874 156.478 923.215 155.029 923.215 153.112C923.215 151.194 922.874 149.745 922.192 148.765C921.511 147.776 920.607 147.282 919.482 147.282C918.357 147.282 917.454 147.776 916.772 148.765C916.09 149.745 915.749 151.194 915.749 153.112C915.749 155.004 916.082 156.448 916.746 157.445C917.42 158.443 918.332 158.941 919.482 158.941Z" fill="white"/>
<ellipse cx="1200.58" cy="158.082" rx="52.351" ry="48.2797" fill="#D9D9D9"/>
<ellipse cx="1202.22" cy="157.5" rx="42.5677" ry="39.1667" fill="#D9D9D9"/>
<path d="M1188.19 163.635V154.407H1187.96C1187.77 154.725 1187.48 155.127 1187.12 155.612C1186.76 156.089 1186.24 156.517 1185.56 156.896C1184.89 157.267 1183.99 157.453 1182.87 157.453C1181.42 157.453 1180.13 157.085 1179.02 156.35C1177.91 155.608 1177.03 154.563 1176.41 153.214C1175.78 151.858 1175.46 150.256 1175.46 148.407C1175.46 146.574 1175.78 144.983 1176.41 143.635C1177.03 142.286 1177.91 141.244 1179.03 140.51C1180.15 139.775 1181.45 139.407 1182.92 139.407C1184.05 139.407 1184.95 139.597 1185.61 139.975C1186.28 140.347 1186.78 140.771 1187.13 141.248C1187.49 141.718 1187.77 142.104 1187.96 142.407H1188.28V139.635H1190.87V163.635H1188.19ZM1183.23 155.044C1184.31 155.044 1185.22 154.763 1185.96 154.203C1186.7 153.635 1187.27 152.85 1187.66 151.85C1188.04 150.843 1188.23 149.68 1188.23 148.362C1188.23 147.059 1188.05 145.919 1187.67 144.941C1187.29 143.957 1186.73 143.191 1185.98 142.646C1185.24 142.093 1184.33 141.816 1183.23 141.816C1182.1 141.816 1181.15 142.108 1180.39 142.691C1179.64 143.267 1179.08 144.051 1178.7 145.044C1178.33 146.029 1178.14 147.135 1178.14 148.362C1178.14 149.604 1178.33 150.733 1178.71 151.748C1179.1 152.756 1179.67 153.559 1180.42 154.157C1181.17 154.748 1182.11 155.044 1183.23 155.044ZM1198.3 161.089V149.612H1198.19L1194.6 151.998V149.589L1198.3 147.135H1200.67V161.089H1198.3ZM1210.04 161.271C1209.05 161.271 1208.17 161.097 1207.39 160.748C1206.62 160.4 1206 159.919 1205.55 159.305C1205.1 158.691 1204.87 157.983 1204.86 157.18H1207.27C1207.29 157.794 1207.55 158.309 1208.05 158.725C1208.56 159.15 1209.22 159.362 1210.04 159.362C1210.93 159.362 1211.65 159.097 1212.22 158.566C1212.8 158.036 1213.08 157.362 1213.08 156.544C1213.08 155.703 1212.78 155.025 1212.19 154.51C1211.59 153.987 1210.86 153.725 1209.99 153.725C1209.49 153.725 1209.02 153.82 1208.57 154.01C1208.13 154.199 1207.77 154.453 1207.49 154.771L1205.18 154.362L1205.99 147.135H1214.72V149.135H1208.04L1207.54 153.18H1207.63C1207.93 152.816 1208.34 152.521 1208.87 152.294C1209.41 152.066 1209.99 151.953 1210.63 151.953C1211.54 151.953 1212.36 152.146 1213.08 152.532C1213.81 152.919 1214.39 153.453 1214.81 154.135C1215.24 154.816 1215.45 155.604 1215.45 156.498C1215.45 157.422 1215.22 158.244 1214.75 158.964C1214.3 159.684 1213.66 160.248 1212.85 160.657C1212.03 161.066 1211.1 161.271 1210.04 161.271Z" fill="white"/>
<ellipse cx="1044.22" cy="157.112" rx="42.5677" ry="39.1667" fill="#D9D9D9"/>
<path d="M1029.44 162.636V152.255H1029.19C1028.96 152.613 1028.65 153.065 1028.24 153.61C1027.83 154.147 1027.25 154.629 1026.49 155.055C1025.73 155.473 1024.72 155.681 1023.46 155.681C1021.82 155.681 1020.38 155.268 1019.12 154.441C1017.87 153.606 1016.89 152.43 1016.18 150.913C1015.48 149.387 1015.12 147.585 1015.12 145.505C1015.12 143.443 1015.48 141.653 1016.18 140.136C1016.89 138.619 1017.88 137.447 1019.14 136.62C1020.4 135.794 1021.86 135.38 1023.51 135.38C1024.79 135.38 1025.8 135.593 1026.54 136.019C1027.29 136.437 1027.86 136.914 1028.25 137.451C1028.65 137.98 1028.96 138.414 1029.19 138.755H1029.54V135.636H1032.46V162.636H1029.44ZM1023.87 152.971C1025.08 152.971 1026.1 152.656 1026.94 152.025C1027.77 151.386 1028.41 150.504 1028.84 149.379C1029.28 148.245 1029.49 146.937 1029.49 145.454C1029.49 143.988 1029.28 142.705 1028.85 141.606C1028.43 140.498 1027.8 139.637 1026.96 139.024C1026.13 138.401 1025.1 138.09 1023.87 138.09C1022.59 138.09 1021.52 138.419 1020.67 139.075C1019.83 139.723 1019.19 140.605 1018.77 141.721C1018.35 142.829 1018.14 144.073 1018.14 145.454C1018.14 146.852 1018.35 148.122 1018.78 149.264C1019.21 150.397 1019.85 151.301 1020.7 151.974C1021.55 152.639 1022.61 152.971 1023.87 152.971ZM1040.82 159.772V146.86H1040.69L1036.65 149.545V146.835L1040.82 144.073H1043.48V159.772H1040.82ZM1047.83 156.806V154.659L1055.3 144.073H1057.19V147.142H1056.02L1050.7 154.505V154.607H1060.93V156.806H1047.83ZM1056.12 159.772V156.142V155.221V144.073H1058.78V159.772H1056.12Z" fill="white"/>
<ellipse cx="526.524" cy="274.612" rx="42.5677" ry="39.1667" fill="#D9D9D9"/>
<path d="M515.239 282.463V272.082H514.983C514.761 272.44 514.446 272.892 514.037 273.437C513.628 273.974 513.044 274.456 512.285 274.882C511.527 275.299 510.517 275.508 509.256 275.508C507.619 275.508 506.175 275.095 504.922 274.268C503.669 273.433 502.689 272.257 501.981 270.74C501.274 269.214 500.92 267.412 500.92 265.332C500.92 263.27 501.274 261.48 501.981 259.963C502.689 258.446 503.673 257.274 504.935 256.447C506.196 255.62 507.653 255.207 509.307 255.207C510.585 255.207 511.595 255.42 512.337 255.846C513.087 256.264 513.658 256.741 514.05 257.278C514.45 257.807 514.761 258.241 514.983 258.582H515.341V255.463H518.256V282.463H515.239ZM509.665 272.798C510.875 272.798 511.898 272.483 512.733 271.852C513.568 271.213 514.203 270.331 514.638 269.206C515.072 268.072 515.29 266.764 515.29 265.281C515.29 263.815 515.077 262.532 514.65 261.433C514.224 260.325 513.594 259.464 512.758 258.851C511.923 258.228 510.892 257.917 509.665 257.917C508.386 257.917 507.321 258.245 506.469 258.902C505.625 259.549 504.99 260.432 504.564 261.548C504.146 262.656 503.937 263.9 503.937 265.281C503.937 266.679 504.15 267.949 504.577 269.091C505.011 270.224 505.65 271.128 506.494 271.801C507.347 272.466 508.403 272.798 509.665 272.798ZM526.616 279.599V266.687H526.489L522.449 269.372V266.662L526.616 263.9H529.275V279.599H526.616ZM537.902 279.599V266.687H537.774L533.734 269.372V266.662L537.902 263.9H540.561V279.599H537.902Z" fill="white"/>
<ellipse cx="791.769" cy="274.612" rx="42.5677" ry="39.1667" fill="#D9D9D9"/>
<path d="M780.484 282.463V272.082H780.228C780.006 272.44 779.691 272.892 779.282 273.437C778.873 273.974 778.289 274.456 777.53 274.882C776.772 275.299 775.762 275.508 774.501 275.508C772.864 275.508 771.42 275.095 770.167 274.268C768.914 273.433 767.934 272.257 767.226 270.74C766.519 269.214 766.165 267.412 766.165 265.332C766.165 263.27 766.519 261.48 767.226 259.963C767.934 258.446 768.918 257.274 770.18 256.447C771.441 255.62 772.898 255.207 774.552 255.207C775.83 255.207 776.84 255.42 777.582 255.846C778.332 256.264 778.903 256.741 779.295 257.278C779.695 257.807 780.006 258.241 780.228 258.582H780.586V255.463H783.501V282.463H780.484ZM774.91 272.798C776.12 272.798 777.143 272.483 777.978 271.852C778.813 271.213 779.448 270.331 779.883 269.206C780.317 268.072 780.535 266.764 780.535 265.281C780.535 263.815 780.322 262.532 779.896 261.433C779.469 260.325 778.839 259.464 778.003 258.851C777.168 258.228 776.137 257.917 774.91 257.917C773.631 257.917 772.566 258.245 771.714 258.902C770.87 259.549 770.235 260.432 769.809 261.548C769.391 262.656 769.182 263.9 769.182 265.281C769.182 266.679 769.396 267.949 769.822 269.091C770.256 270.224 770.896 271.128 771.739 271.801C772.592 272.466 773.648 272.798 774.91 272.798ZM791.861 279.599V266.687H791.734L787.694 269.372V266.662L791.861 263.9H794.521V279.599H791.861ZM799.337 279.599V277.605L805.32 272.287C805.916 271.758 806.415 271.285 806.816 270.868C807.216 270.45 807.519 270.045 807.723 269.653C807.928 269.261 808.03 268.843 808.03 268.4C808.03 267.633 807.736 267.024 807.148 266.572C806.56 266.12 805.831 265.895 804.962 265.895C804.041 265.895 803.3 266.142 802.737 266.636C802.175 267.122 801.894 267.761 801.894 268.554H799.235C799.235 267.096 799.776 265.924 800.858 265.038C801.941 264.143 803.326 263.696 805.013 263.696C806.138 263.696 807.127 263.9 807.979 264.309C808.831 264.71 809.496 265.264 809.973 265.971C810.451 266.67 810.689 267.463 810.689 268.349C810.689 269.048 810.549 269.696 810.267 270.292C809.986 270.889 809.547 271.507 808.951 272.146C808.354 272.785 807.587 273.514 806.649 274.332L803.326 277.247V277.349H811.149V279.599H799.337Z" fill="white"/>
<ellipse cx="1050.03" cy="274.612" rx="42.5677" ry="39.1667" fill="#D9D9D9"/>
<path d="M1038.75 282.463V272.082H1038.49C1038.27 272.44 1037.96 272.892 1037.55 273.437C1037.14 273.974 1036.55 274.456 1035.8 274.882C1035.04 275.299 1034.03 275.508 1032.77 275.508C1031.13 275.508 1029.68 275.095 1028.43 274.268C1027.18 273.433 1026.2 272.257 1025.49 270.74C1024.78 269.214 1024.43 267.412 1024.43 265.332C1024.43 263.27 1024.78 261.48 1025.49 259.963C1026.2 258.446 1027.18 257.274 1028.44 256.447C1029.71 255.62 1031.16 255.207 1032.82 255.207C1034.1 255.207 1035.11 255.42 1035.85 255.846C1036.6 256.264 1037.17 256.741 1037.56 257.278C1037.96 257.807 1038.27 258.241 1038.49 258.582H1038.85V255.463H1041.77V282.463H1038.75ZM1033.17 272.798C1034.38 272.798 1035.41 272.483 1036.24 271.852C1037.08 271.213 1037.71 270.331 1038.15 269.206C1038.58 268.072 1038.8 266.764 1038.8 265.281C1038.8 263.815 1038.59 262.532 1038.16 261.433C1037.73 260.325 1037.1 259.464 1036.27 258.851C1035.43 258.228 1034.4 257.917 1033.17 257.917C1031.9 257.917 1030.83 258.245 1029.98 258.902C1029.13 259.549 1028.5 260.432 1028.07 261.548C1027.66 262.656 1027.45 263.9 1027.45 265.281C1027.45 266.679 1027.66 267.949 1028.09 269.091C1028.52 270.224 1029.16 271.128 1030 271.801C1030.86 272.466 1031.91 272.798 1033.17 272.798ZM1050.13 279.599V266.687H1050L1045.96 269.372V266.662L1050.13 263.9H1052.79V279.599H1050.13ZM1063.53 279.804C1062.36 279.804 1061.3 279.608 1060.38 279.216C1059.46 278.824 1058.72 278.282 1058.18 277.592C1057.64 276.902 1057.36 276.105 1057.35 275.201H1060.16C1060.18 275.892 1060.52 276.446 1061.16 276.863C1061.8 277.289 1062.59 277.503 1063.53 277.503C1064.53 277.503 1065.35 277.272 1065.99 276.812C1066.64 276.352 1066.96 275.764 1066.96 275.048C1066.96 274.332 1066.61 273.744 1065.92 273.284C1065.24 272.824 1064.33 272.593 1063.18 272.593H1061.9V270.548H1063.18C1064.12 270.548 1064.91 270.335 1065.54 269.909C1066.18 269.483 1066.5 268.912 1066.5 268.196C1066.5 267.531 1066.23 266.981 1065.69 266.547C1065.16 266.112 1064.45 265.895 1063.58 265.895C1062.72 265.895 1061.97 266.108 1061.33 266.534C1060.71 266.96 1060.39 267.531 1060.36 268.247H1057.7C1057.72 267.343 1057.99 266.551 1058.51 265.869C1059.04 265.187 1059.74 264.655 1060.62 264.271C1061.51 263.887 1062.49 263.696 1063.58 263.696C1064.69 263.696 1065.67 263.883 1066.51 264.258C1067.36 264.633 1068.02 265.149 1068.49 265.805C1068.97 266.461 1069.21 267.207 1069.21 268.042C1069.21 268.963 1068.89 269.717 1068.26 270.305C1067.63 270.893 1066.86 271.264 1065.94 271.417V271.52C1067.19 271.699 1068.15 272.129 1068.81 272.811C1069.49 273.493 1069.82 274.307 1069.82 275.253C1069.82 276.122 1069.55 276.897 1069.02 277.579C1068.48 278.27 1067.74 278.811 1066.79 279.203C1065.85 279.603 1064.76 279.804 1063.53 279.804Z" fill="white"/>
<ellipse cx="1046.54" cy="40.7756" rx="42.5677" ry="39.1667" fill="#D9D9D9"/>
<path d="M1035.26 48.6261V38.2454H1035C1034.78 38.6034 1034.47 39.0551 1034.06 39.6005C1033.65 40.1375 1033.06 40.619 1032.31 41.0451C1031.55 41.4627 1030.54 41.6715 1029.28 41.6715C1027.64 41.6715 1026.19 41.2582 1024.94 40.4315C1023.69 39.5963 1022.71 38.4201 1022 36.9031C1021.29 35.3775 1020.94 33.575 1020.94 31.4954C1020.94 29.4329 1021.29 27.6431 1022 26.1261C1022.71 24.609 1023.69 23.4372 1024.95 22.6105C1026.22 21.7838 1027.67 21.3704 1029.33 21.3704C1030.6 21.3704 1031.61 21.5835 1032.36 22.0096C1033.11 22.4272 1033.68 22.9045 1034.07 23.4414C1034.47 23.9698 1034.78 24.4045 1035 24.7454H1035.36V21.6261H1038.28V48.6261H1035.26ZM1029.68 38.9613C1030.89 38.9613 1031.92 38.646 1032.75 38.0153C1033.59 37.3761 1034.22 36.494 1034.66 35.369C1035.09 34.2355 1035.31 32.9272 1035.31 31.4443C1035.31 29.9784 1035.1 28.6957 1034.67 27.5963C1034.24 26.4883 1033.61 25.6275 1032.78 25.0139C1031.94 24.3917 1030.91 24.0806 1029.68 24.0806C1028.41 24.0806 1027.34 24.4088 1026.49 25.065C1025.64 25.7127 1025.01 26.5948 1024.58 27.7113C1024.17 28.8193 1023.96 30.0636 1023.96 31.4443C1023.96 32.842 1024.17 34.1119 1024.6 35.2539C1025.03 36.3875 1025.67 37.2909 1026.51 37.9642C1027.37 38.6289 1028.42 38.9613 1029.68 38.9613ZM1048.71 45.967C1047.5 45.967 1046.41 45.7752 1045.46 45.3917C1044.51 45.0082 1043.75 44.484 1043.2 43.8193C1042.64 43.1545 1042.37 42.4045 1042.37 41.5693C1042.37 40.7 1042.7 39.8818 1043.36 39.1147C1044.04 38.3392 1044.95 37.8619 1046.1 37.6829V37.5806C1045.18 37.3761 1044.43 36.9457 1043.85 36.2894C1043.27 35.6332 1042.98 34.8704 1042.98 34.0011C1042.98 33.217 1043.23 32.5139 1043.72 31.8917C1044.22 31.261 1044.91 30.7667 1045.77 30.4088C1046.64 30.0423 1047.62 29.859 1048.71 29.859C1049.8 29.859 1050.77 30.0423 1051.63 30.4088C1052.5 30.7667 1053.19 31.261 1053.68 31.8917C1054.18 32.5139 1054.43 33.217 1054.43 34.0011C1054.43 34.8704 1054.14 35.6332 1053.57 36.2894C1052.99 36.9457 1052.26 37.3761 1051.37 37.5806V37.6829C1052.41 37.8363 1053.3 38.2923 1054.01 39.0508C1054.74 39.8093 1055.1 40.6488 1055.1 41.5693C1055.1 42.4045 1054.82 43.1545 1054.26 43.8193C1053.69 44.484 1052.93 45.0082 1051.97 45.3917C1051 45.7752 1049.92 45.967 1048.71 45.967ZM1048.71 43.9727C1049.37 43.9727 1049.97 43.8576 1050.5 43.6275C1051.03 43.3974 1051.46 43.0863 1051.76 42.6943C1052.08 42.3022 1052.24 41.859 1052.24 41.3647C1052.24 40.8704 1052.08 40.423 1051.76 40.0224C1051.46 39.6218 1051.03 39.3022 1050.5 39.0636C1049.97 38.825 1049.37 38.7056 1048.71 38.7056C1048.04 38.7056 1047.45 38.825 1046.92 39.0636C1046.4 39.3022 1045.98 39.6218 1045.68 40.0224C1045.38 40.423 1045.23 40.8704 1045.23 41.3647C1045.23 42.0806 1045.55 42.6943 1046.2 43.2056C1046.85 43.717 1047.68 43.9727 1048.71 43.9727ZM1048.71 36.7113C1049.29 36.7113 1049.8 36.6048 1050.25 36.3917C1050.71 36.1701 1051.07 35.8803 1051.33 35.5224C1051.59 35.1559 1051.72 34.7511 1051.72 34.3079C1051.72 33.6176 1051.44 33.0465 1050.87 32.5948C1050.3 32.1346 1049.58 31.9045 1048.71 31.9045C1048.14 31.9045 1047.63 32.011 1047.17 32.2241C1046.72 32.4286 1046.36 32.7142 1046.09 33.0806C1045.82 33.4386 1045.69 33.8477 1045.69 34.3079C1045.69 34.9982 1045.99 35.5735 1046.59 36.0338C1047.18 36.4855 1047.89 36.7113 1048.71 36.7113Z" fill="white"/>
<ellipse cx="640.532" cy="39.6122" rx="42.5677" ry="39.1667" fill="#D9D9D9"/>
<path d="M636.907 51.6354V41.2547H636.651C636.429 41.6126 636.114 42.0643 635.705 42.6098C635.296 43.1467 634.712 43.6283 633.953 44.0544C633.195 44.472 632.185 44.6808 630.924 44.6808C629.287 44.6808 627.843 44.2675 626.59 43.4408C625.337 42.6055 624.357 41.4294 623.649 39.9124C622.942 38.3868 622.588 36.5842 622.588 34.5047C622.588 32.4422 622.942 30.6524 623.649 29.1354C624.357 27.6183 625.341 26.4464 626.603 25.6197C627.864 24.793 629.321 24.3797 630.975 24.3797C632.253 24.3797 633.263 24.5928 634.005 25.0189C634.755 25.4365 635.326 25.9138 635.718 26.4507C636.118 26.9791 636.429 27.4138 636.651 27.7547H637.009V24.6354H639.924V51.6354H636.907ZM631.333 41.9706C632.543 41.9706 633.566 41.6553 634.401 41.0246C635.236 40.3854 635.871 39.5033 636.306 38.3783C636.74 37.2447 636.958 35.9365 636.958 34.4535C636.958 32.9876 636.745 31.705 636.318 30.6055C635.892 29.4976 635.262 28.6368 634.426 28.0231C633.591 27.401 632.56 27.0899 631.333 27.0899C630.054 27.0899 628.989 27.418 628.137 28.0743C627.293 28.722 626.658 29.6041 626.232 30.7206C625.814 31.8285 625.605 33.0729 625.605 34.4535C625.605 35.8513 625.818 37.1212 626.245 38.2632C626.679 39.3967 627.318 40.3001 628.162 40.9734C629.014 41.6382 630.071 41.9706 631.333 41.9706ZM644.935 48.7717L652.503 35.4251V35.3229H643.759V33.0729H655.367V35.374L647.85 48.7717H644.935Z" fill="white"/>
</svg>
